<svg width="590" height="504" viewBox="0 0 590 504" fill="none" xmlns="http://www.w3.org/2000/svg">
<g opacity="0.6">
<rect width="3.89071" height="3.89071" transform="matrix(0.694122 0.719857 -0.694122 0.719857 198.689 298.719)" fill="#D8B3FF"/>
<rect width="2.45675" height="2.45675" transform="matrix(0.694133 0.719847 -0.694133 0.719847 268.046 312.133)" fill="#D8B3FF"/>
<rect width="3.22501" height="3.22501" transform="matrix(0.694133 0.719847 -0.694133 0.719847 154.916 275.912)" fill="#D8B3FF"/>
<rect width="4.40042" height="4.40042" transform="matrix(0.694133 0.719847 -0.694133 0.719847 239.76 280.554)" fill="#D8B3FF"/>
<rect width="5.73366" height="5.73366" transform="matrix(0.694141 0.719839 -0.694141 0.719839 168.275 334.978)" fill="#D8B3FF"/>
<rect width="2.56008" height="2.56008" transform="matrix(0.694133 0.719847 -0.694133 0.719847 257.528 369.982)" fill="#D8B3FF"/>
<rect width="3.27815" height="3.27815" transform="matrix(0.694133 0.719847 -0.694133 0.719847 238.98 324.657)" fill="#D8B3FF"/>
<rect width="2.76517" height="2.76517" transform="matrix(0.694149 0.719832 -0.694149 0.719832 209.49 326.798)" fill="#D8B3FF"/>
<rect width="3.7903" height="3.7903" transform="matrix(0.694133 0.719847 -0.694133 0.719847 222.85 338.368)" fill="#D8B3FF"/>
<rect width="3.99387" height="3.99387" transform="matrix(0.694133 0.719847 -0.694133 0.719847 195.491 350.01)" fill="#D8B3FF"/>
<rect width="2.04876" height="2.04876" transform="matrix(0.694133 0.719847 -0.694133 0.719847 187.105 368.508)" fill="#D8B3FF"/>
</g>
<g opacity="0.6">
<rect width="3.8907" height="3.8907" transform="matrix(0.694144 0.719836 -0.694144 0.719836 339.124 323.94)" fill="#D8B3FF"/>
<rect width="2.45675" height="2.45675" transform="matrix(0.694133 0.719847 -0.694133 0.719847 408.48 337.353)" fill="#D8B3FF"/>
<rect width="3.22501" height="3.22501" transform="matrix(0.694133 0.719847 -0.694133 0.719847 295.351 301.132)" fill="#D8B3FF"/>
<rect width="4.40042" height="4.40042" transform="matrix(0.694143 0.719837 -0.694143 0.719837 380.194 305.774)" fill="#D8B3FF"/>
<rect width="5.73366" height="5.73366" transform="matrix(0.694141 0.719839 -0.694141 0.719839 308.71 360.197)" fill="#D8B3FF"/>
<rect width="2.56008" height="2.56008" transform="matrix(0.694133 0.719847 -0.694133 0.719847 397.964 395.202)" fill="#D8B3FF"/>
<rect width="3.27815" height="3.27815" transform="matrix(0.694133 0.719847 -0.694133 0.719847 379.416 349.878)" fill="#D8B3FF"/>
<rect width="2.76517" height="2.76517" transform="matrix(0.694133 0.719847 -0.694133 0.719847 349.925 352.017)" fill="#D8B3FF"/>
<rect width="3.7903" height="3.7903" transform="matrix(0.694122 0.719858 -0.694122 0.719858 363.285 363.587)" fill="#D8B3FF"/>
<rect width="3.99387" height="3.99387" transform="matrix(0.694133 0.719847 -0.694133 0.719847 335.927 375.23)" fill="#D8B3FF"/>
<rect width="2.04876" height="2.04876" transform="matrix(0.694133 0.719847 -0.694133 0.719847 327.541 393.727)" fill="#D8B3FF"/>
</g>
<g opacity="0.6">
<rect width="3.40749" height="3.40749" transform="matrix(0.694133 0.719847 -0.694133 0.719847 289.431 120.463)" fill="#D8B3FF"/>
<rect width="2.15163" height="2.15163" transform="matrix(0.694133 0.719847 -0.694133 0.719847 350.173 132.21)" fill="#D8B3FF"/>
<rect width="2.82447" height="2.82447" transform="matrix(0.694133 0.719847 -0.694133 0.719847 251.094 100.488)" fill="#D8B3FF"/>
<rect width="3.8539" height="3.8539" transform="matrix(0.694133 0.719847 -0.694133 0.719847 325.401 104.555)" fill="#D8B3FF"/>
<rect width="5.02156" height="5.02156" transform="matrix(0.694133 0.719847 -0.694133 0.719847 262.793 152.218)" fill="#D8B3FF"/>
<rect width="2.24213" height="2.24213" transform="matrix(0.694114 0.719865 -0.694114 0.719865 340.962 182.875)" fill="#D8B3FF"/>
<rect width="2.87101" height="2.87101" transform="matrix(0.694133 0.719847 -0.694133 0.719847 324.719 143.18)" fill="#D8B3FF"/>
<rect width="2.42175" height="2.42175" transform="matrix(0.694133 0.719847 -0.694133 0.719847 298.892 145.054)" fill="#D8B3FF"/>
<rect width="3.31955" height="3.31955" transform="matrix(0.694133 0.719847 -0.694133 0.719847 310.591 155.187)" fill="#D8B3FF"/>
<rect width="3.49784" height="3.49784" transform="matrix(0.694133 0.719847 -0.694133 0.719847 286.63 165.384)" fill="#D8B3FF"/>
<rect width="1.79197" height="1.79197" transform="matrix(0.694109 0.71987 -0.694109 0.71987 279.286 181.585)" fill="#D8B3FF"/>
</g>
<path fill-rule="evenodd" clip-rule="evenodd" d="M268.722 184.99L161.671 246.922L294.574 335.485L428.326 246.922L320.62 184.611L294.477 199.124L268.722 184.99Z" fill="url(#paint0_linear_1431_3)" fill-opacity="0.8"/>
<path fill-rule="evenodd" clip-rule="evenodd" d="M436.967 327.35L295.246 244.78L294.997 244.635L294.748 244.78L151.422 328.286L152.385 328.933L294.997 245.844L436.008 328L436.967 327.35Z" fill="url(#paint1_linear_1431_3)"/>
<path fill-rule="evenodd" clip-rule="evenodd" d="M253.817 176.809L0 323.958L293.064 503.449L590 319.941L337.642 175.163L294.48 199.124L253.817 176.809ZM295.994 225.514L446.46 320.918L294.006 424.217L143.54 322.98L295.994 225.514Z" fill="url(#paint2_linear_1431_3)"/>
<path d="M162.659 263.842L294.999 186.737L427.339 263.842L294.999 351.581L162.659 263.842Z" stroke="url(#paint3_linear_1431_3)" stroke-width="1.03515"/>
<path fill-rule="evenodd" clip-rule="evenodd" d="M374.301 154.811L298.959 112.738L215.699 155.891L297.426 200.653L374.301 154.811ZM352.142 154.961L298.891 123.749L237.857 155.739L297.609 186.837L352.142 154.961Z" fill="url(#paint4_linear_1431_3)"/>
<path d="M217.191 156.447L297.425 200.652L294.572 335.483L163.221 247.506L217.191 156.447Z" fill="url(#paint5_linear_1431_3)" fill-opacity="0.6"/>
<path d="M217.191 156.447L297.425 200.652L294.572 335.483L163.221 247.506L217.191 156.447Z" fill="url(#paint6_linear_1431_3)" fill-opacity="0.4"/>
<path d="M268.676 184.971L215.696 155.886L161.727 246.945L268.676 184.971Z" fill="url(#paint7_linear_1431_3)" fill-opacity="0.8"/>
<path d="M268.676 184.971L215.696 155.886L161.727 246.945L268.676 184.971Z" fill="url(#paint8_linear_1431_3)" fill-opacity="0.4"/>
<path fill-rule="evenodd" clip-rule="evenodd" d="M322.751 185.584L374.29 154.807L428.323 246.932L294.57 335.49L294.575 335.14L427.335 246.765L322.751 185.584Z" fill="url(#paint9_linear_1431_3)" fill-opacity="0.8"/>
<path fill-rule="evenodd" clip-rule="evenodd" d="M322.87 185.475L297.429 200.65L294.58 335.482L428.335 246.924L428.332 246.92L322.87 185.475ZM374.302 154.8L374.301 154.799L374.28 154.812L374.302 154.8Z" fill="url(#paint10_linear_1431_3)" fill-opacity="0.8"/>
<path fill-rule="evenodd" clip-rule="evenodd" d="M322.87 185.475L297.429 200.65L294.58 335.482L428.335 246.924L428.332 246.92L322.87 185.475ZM374.302 154.8L374.301 154.799L374.28 154.812L374.302 154.8Z" fill="url(#paint11_linear_1431_3)" fill-opacity="0.7"/>
<g filter="url(#filter0_f_1431_3)">
<ellipse cx="14.3334" cy="14.5964" rx="14.3334" ry="14.5964" transform="matrix(0.857971 -0.513699 0.486425 0.873722 197.867 228.119)" fill="url(#paint12_radial_1431_3)"/>
</g>
<rect width="91.2456" height="4.14853" rx="2.07427" transform="matrix(0.85797 -0.5137 0.486424 0.873723 214.12 232.977)" fill="url(#paint13_linear_1431_3)" fill-opacity="0.6"/>
<g filter="url(#filter1_f_1431_3)">
<ellipse cx="14.3334" cy="14.5964" rx="14.3334" ry="14.5964" transform="matrix(0.857971 -0.513699 0.486425 0.873722 197.867 228.119)" fill="url(#paint14_radial_1431_3)"/>
</g>
<g filter="url(#filter2_f_1431_3)">
<ellipse cx="14.3334" cy="14.5964" rx="14.3334" ry="14.5964" transform="matrix(-0.857969 -0.513701 -0.486423 0.873723 373.228 218.877)" fill="url(#paint15_radial_1431_3)"/>
</g>
<rect width="91.2456" height="4.14853" rx="2.07427" transform="matrix(-0.85797 -0.5137 -0.486424 0.873723 356.974 223.734)" fill="url(#paint16_linear_1431_3)" fill-opacity="0.9"/>
<g filter="url(#filter3_f_1431_3)">
<ellipse cx="18.9629" cy="19.3108" rx="18.9629" ry="19.3108" transform="matrix(-0.85797 -0.513699 -0.486425 0.873722 379.491 217.135)" fill="url(#paint17_radial_1431_3)"/>
</g>
<g filter="url(#filter4_f_1431_3)">
<ellipse cx="14.3579" cy="14.5723" rx="14.3579" ry="14.5723" transform="matrix(-0.829713 -0.558191 -0.530333 0.847789 361.592 268.432)" fill="url(#paint18_radial_1431_3)"/>
</g>
<rect width="56.7749" height="5.66613" rx="2.83307" transform="matrix(-0.829712 -0.558192 -0.530332 0.84779 344.549 271.107)" fill="url(#paint19_linear_1431_3)" fill-opacity="0.9"/>
<g filter="url(#filter5_f_1431_3)">
<ellipse cx="18.9953" cy="19.2789" rx="18.9953" ry="19.2789" transform="matrix(-0.829713 -0.558191 -0.530333 0.847789 367.936 267.031)" fill="url(#paint20_radial_1431_3)"/>
</g>
<g filter="url(#filter6_f_1431_3)">
<ellipse cx="10.8375" cy="10.9993" rx="10.8375" ry="10.9993" transform="matrix(-0.829711 -0.558193 -0.530331 0.847791 357.991 284.294)" fill="url(#paint21_radial_1431_3)"/>
</g>
<rect width="64.4146" height="4.27685" rx="2.13842" transform="matrix(-0.829713 -0.55819 -0.530334 0.847789 345.126 286.314)" fill="url(#paint22_linear_1431_3)" fill-opacity="0.6"/>
<g filter="url(#filter7_f_1431_3)">
<ellipse cx="14.3378" cy="14.5519" rx="14.3378" ry="14.5519" transform="matrix(-0.829714 -0.558189 -0.530335 0.847788 362.779 283.237)" fill="url(#paint23_radial_1431_3)"/>
</g>
<g opacity="0.6">
<g filter="url(#filter8_f_1431_3)">
<ellipse cx="7.24028" cy="7.34981" rx="7.24028" ry="7.34981" transform="matrix(0.831367 -0.555724 0.527887 0.849315 216.859 258.585)" fill="url(#paint24_radial_1431_3)"/>
</g>
<rect width="46.091" height="2.08893" rx="1.04447" transform="matrix(0.831367 -0.555724 0.527887 0.849315 225.161 260.615)" fill="url(#paint25_linear_1431_3)" fill-opacity="0.6"/>
</g>
<rect width="46.0052" height="2.0927" rx="1.04635" transform="matrix(-0.862104 -0.506732 -0.479588 0.877494 397.248 218.845)" fill="url(#paint26_linear_1431_3)"/>
<g filter="url(#filter9_f_1431_3)">
<ellipse cx="7.2268" cy="7.36307" rx="7.2268" ry="7.36307" transform="matrix(-0.862104 -0.506732 -0.479588 0.877494 405.425 216.328)" fill="url(#paint27_radial_1431_3)"/>
</g>
<g filter="url(#filter10_f_1431_3)">
<ellipse cx="9.97864" cy="10.1668" rx="9.97864" ry="10.1668" transform="matrix(-0.862104 -0.506732 -0.479588 0.877494 409.143 215.262)" fill="url(#paint28_radial_1431_3)"/>
</g>
<g opacity="0.3">
<rect width="46.0052" height="2.0927" rx="1.04635" transform="matrix(-0.862104 -0.506731 -0.479589 0.877493 402.013 244.709)" fill="url(#paint29_linear_1431_3)"/>
<g filter="url(#filter11_f_1431_3)">
<ellipse cx="7.2268" cy="7.36307" rx="7.2268" ry="7.36307" transform="matrix(-0.862104 -0.506732 -0.479588 0.877494 410.189 242.192)" fill="url(#paint30_radial_1431_3)"/>
</g>
</g>
<rect width="78.7367" height="8.3184" rx="4.1592" transform="matrix(0.84284 -0.538164 0.510514 0.859869 264.085 247.101)" fill="url(#paint31_linear_1431_3)" fill-opacity="0.6"/>
<g filter="url(#filter12_f_1431_3)">
<ellipse cx="24.193" cy="24.5924" rx="24.193" ry="24.5924" transform="matrix(0.84284 -0.538164 0.510514 0.859869 236.808 240.287)" fill="url(#paint32_radial_1431_3)"/>
</g>
<g opacity="0.5">
<rect width="46.7049" height="6.93835" rx="3.46917" transform="matrix(0.857971 -0.513699 0.486425 0.873722 263.218 292.261)" fill="url(#paint33_linear_1431_3)" fill-opacity="0.6"/>
<g filter="url(#filter13_f_1431_3)">
<ellipse cx="20.1428" cy="20.5124" rx="20.1428" ry="20.5124" transform="matrix(0.85797 -0.513699 0.486425 0.873722 240.649 285.92)" fill="url(#paint34_radial_1431_3)"/>
</g>
</g>
<path d="M243.888 105.927L298.598 76.9314L353.308 105.927L298.598 138.921L243.888 105.927Z" stroke="url(#paint35_linear_1431_3)" stroke-width="1.03515"/>
<path d="M298.598 68.5323L350.769 98.0894L298.598 131.723L246.787 98.0894L298.598 68.5323Z" fill="url(#paint36_linear_1431_3)" fill-opacity="0.6"/>
<path d="M246.788 98.0894L298.602 131.726L301.299 0L246.788 98.0894Z" fill="url(#paint37_linear_1431_3)"/>
<path d="M246.788 98.0894L298.602 131.726L301.299 0L246.788 98.0894Z" fill="url(#paint38_linear_1431_3)" fill-opacity="0.4"/>
<path d="M350.769 98.0926L298.602 131.726L301.299 0L350.769 98.0926Z" fill="url(#paint39_linear_1431_3)" fill-opacity="0.8"/>
<g filter="url(#filter14_f_1431_3)">
<ellipse cx="7.24028" cy="7.34982" rx="7.24028" ry="7.34982" transform="matrix(0.831367 -0.555724 0.527887 0.849315 269.23 68.8252)" fill="url(#paint40_radial_1431_3)"/>
</g>
<g filter="url(#filter15_f_1431_3)">
<ellipse cx="7.24028" cy="7.34982" rx="7.24028" ry="7.34982" transform="matrix(0.831367 -0.555724 0.527887 0.849315 269.23 68.8252)" fill="url(#paint41_radial_1431_3)"/>
</g>
<rect width="24.9389" height="2.08893" rx="1.04447" transform="matrix(0.831366 -0.555726 0.527885 0.849316 277.533 70.8552)" fill="url(#paint42_linear_1431_3)" fill-opacity="0.6"/>
<g filter="url(#filter16_f_1431_3)">
<ellipse cx="10.221" cy="10.4086" rx="10.221" ry="10.4086" transform="matrix(-0.85797 -0.513699 -0.486425 0.873722 347.201 89.915)" fill="url(#paint43_radial_1431_3)"/>
</g>
<rect width="41.9767" height="2.95827" rx="1.47914" transform="matrix(-0.857969 -0.513702 -0.486423 0.873724 335.611 93.3801)" fill="url(#paint44_linear_1431_3)" fill-opacity="0.9"/>
<g filter="url(#filter17_f_1431_3)">
<ellipse cx="13.5222" cy="13.7703" rx="13.5222" ry="13.7703" transform="matrix(-0.85797 -0.513699 -0.486425 0.873722 351.668 88.6741)" fill="url(#paint45_radial_1431_3)"/>
</g>
<g opacity="0.4">
<g filter="url(#filter18_f_1431_3)">
<ellipse cx="7.16636" cy="7.29784" rx="7.16636" ry="7.29784" transform="matrix(-0.85797 -0.513699 -0.486425 0.873722 332.481 95.0015)" fill="url(#paint46_radial_1431_3)"/>
</g>
<rect width="29.4315" height="2.07416" rx="1.03708" transform="matrix(-0.857971 -0.513699 -0.486425 0.873722 324.354 97.4299)" fill="url(#paint47_linear_1431_3)" fill-opacity="0.9"/>
<g filter="url(#filter19_f_1431_3)">
<ellipse cx="9.48096" cy="9.65492" rx="9.48096" ry="9.65492" transform="matrix(-0.85797 -0.513699 -0.486425 0.873722 335.613 94.1306)" fill="url(#paint48_radial_1431_3)"/>
</g>
</g>
<g opacity="0.4">
<g filter="url(#filter20_f_1431_3)">
<ellipse cx="4.53639" cy="4.61962" rx="4.53639" ry="4.61962" transform="matrix(0.857973 -0.513694 0.48643 0.87372 273.721 88.3425)" fill="url(#paint49_radial_1431_3)"/>
</g>
<rect width="18.6305" height="1.31297" rx="0.656484" transform="matrix(0.857969 -0.513701 0.486423 0.873724 278.864 89.8789)" fill="url(#paint50_linear_1431_3)" fill-opacity="0.9"/>
<g filter="url(#filter21_f_1431_3)">
<ellipse cx="6.00156" cy="6.11168" rx="6.00156" ry="6.11168" transform="matrix(0.857968 -0.513703 0.486421 0.873725 271.738 87.79)" fill="url(#paint51_radial_1431_3)"/>
</g>
</g>
<path d="M350.769 98.0926L298.602 131.726L301.299 0L350.769 98.0926Z" fill="url(#paint52_linear_1431_3)" fill-opacity="0.4"/>
<defs>
<filter id="filter0_f_1431_3" x="199.957" y="215.675" width="34.6157" height="35.668" filterUnits="userSpaceOnUse" color-interpolation-filters="sRGB">
<feFlood flood-opacity="0" result="BackgroundImageFix"/>
<feBlend mode="normal" in="SourceGraphic" in2="BackgroundImageFix" result="shape"/>
<feGaussianBlur stdDeviation="1.55273" result="effect1_foregroundBlur_1431_3"/>
</filter>
<filter id="filter1_f_1431_3" x="199.957" y="215.675" width="34.6157" height="35.668" filterUnits="userSpaceOnUse" color-interpolation-filters="sRGB">
<feFlood flood-opacity="0" result="BackgroundImageFix"/>
<feBlend mode="normal" in="SourceGraphic" in2="BackgroundImageFix" result="shape"/>
<feGaussianBlur stdDeviation="1.55273" result="effect1_foregroundBlur_1431_3"/>
</filter>
<filter id="filter2_f_1431_3" x="336.522" y="206.433" width="34.6157" height="35.6684" filterUnits="userSpaceOnUse" color-interpolation-filters="sRGB">
<feFlood flood-opacity="0" result="BackgroundImageFix"/>
<feBlend mode="normal" in="SourceGraphic" in2="BackgroundImageFix" result="shape"/>
<feGaussianBlur stdDeviation="1.55273" result="effect1_foregroundBlur_1431_3"/>
</filter>
<filter id="filter3_f_1431_3" x="331.933" y="201.675" width="43.7905" height="45.1824" filterUnits="userSpaceOnUse" color-interpolation-filters="sRGB">
<feFlood flood-opacity="0" result="BackgroundImageFix"/>
<feBlend mode="normal" in="SourceGraphic" in2="BackgroundImageFix" result="shape"/>
<feGaussianBlur stdDeviation="1.55273" result="effect1_foregroundBlur_1431_3"/>
</filter>
<filter id="filter4_f_1431_3" x="324.644" y="254.939" width="34.6142" height="35.6667" filterUnits="userSpaceOnUse" color-interpolation-filters="sRGB">
<feFlood flood-opacity="0" result="BackgroundImageFix"/>
<feBlend mode="normal" in="SourceGraphic" in2="BackgroundImageFix" result="shape"/>
<feGaussianBlur stdDeviation="1.55273" result="effect1_foregroundBlur_1431_3"/>
</filter>
<filter id="filter5_f_1431_3" x="320.057" y="250.182" width="43.7881" height="45.1804" filterUnits="userSpaceOnUse" color-interpolation-filters="sRGB">
<feFlood flood-opacity="0" result="BackgroundImageFix"/>
<feBlend mode="normal" in="SourceGraphic" in2="BackgroundImageFix" result="shape"/>
<feGaussianBlur stdDeviation="1.55273" result="effect1_foregroundBlur_1431_3"/>
</filter>
<filter id="filter6_f_1431_3" x="329.341" y="273.348" width="27.6504" height="28.4446" filterUnits="userSpaceOnUse" color-interpolation-filters="sRGB">
<feFlood flood-opacity="0" result="BackgroundImageFix"/>
<feBlend mode="normal" in="SourceGraphic" in2="BackgroundImageFix" result="shape"/>
<feGaussianBlur stdDeviation="1.55273" result="effect1_foregroundBlur_1431_3"/>
</filter>
<filter id="filter7_f_1431_3" x="325.878" y="269.758" width="34.5747" height="35.6255" filterUnits="userSpaceOnUse" color-interpolation-filters="sRGB">
<feFlood flood-opacity="0" result="BackgroundImageFix"/>
<feBlend mode="normal" in="SourceGraphic" in2="BackgroundImageFix" result="shape"/>
<feGaussianBlur stdDeviation="1.55273" result="effect1_foregroundBlur_1431_3"/>
</filter>
<filter id="filter8_f_1431_3" x="216.49" y="250.27" width="20.5356" height="21.0662" filterUnits="userSpaceOnUse" color-interpolation-filters="sRGB">
<feFlood flood-opacity="0" result="BackgroundImageFix"/>
<feBlend mode="normal" in="SourceGraphic" in2="BackgroundImageFix" result="shape"/>
<feGaussianBlur stdDeviation="1.55273" result="effect1_foregroundBlur_1431_3"/>
</filter>
<filter id="filter9_f_1431_3" x="385.395" y="208.593" width="20.5366" height="21.0669" filterUnits="userSpaceOnUse" color-interpolation-filters="sRGB">
<feFlood flood-opacity="0" result="BackgroundImageFix"/>
<feBlend mode="normal" in="SourceGraphic" in2="BackgroundImageFix" result="shape"/>
<feGaussianBlur stdDeviation="1.55273" result="effect1_foregroundBlur_1431_3"/>
</filter>
<filter id="filter10_f_1431_3" x="382.669" y="205.765" width="25.9912" height="26.7239" filterUnits="userSpaceOnUse" color-interpolation-filters="sRGB">
<feFlood flood-opacity="0" result="BackgroundImageFix"/>
<feBlend mode="normal" in="SourceGraphic" in2="BackgroundImageFix" result="shape"/>
<feGaussianBlur stdDeviation="1.55273" result="effect1_foregroundBlur_1431_3"/>
</filter>
<filter id="filter11_f_1431_3" x="390.159" y="234.458" width="20.5366" height="21.0669" filterUnits="userSpaceOnUse" color-interpolation-filters="sRGB">
<feFlood flood-opacity="0" result="BackgroundImageFix"/>
<feBlend mode="normal" in="SourceGraphic" in2="BackgroundImageFix" result="shape"/>
<feGaussianBlur stdDeviation="1.55273" result="effect1_foregroundBlur_1431_3"/>
</filter>
<filter id="filter12_f_1431_3" x="242.699" y="220.471" width="54.1099" height="55.884" filterUnits="userSpaceOnUse" color-interpolation-filters="sRGB">
<feFlood flood-opacity="0" result="BackgroundImageFix"/>
<feBlend mode="normal" in="SourceGraphic" in2="BackgroundImageFix" result="shape"/>
<feGaussianBlur stdDeviation="1.55273" result="effect1_foregroundBlur_1431_3"/>
</filter>
<filter id="filter13_f_1431_3" x="244.844" y="269.691" width="46.1284" height="47.6072" filterUnits="userSpaceOnUse" color-interpolation-filters="sRGB">
<feFlood flood-opacity="0" result="BackgroundImageFix"/>
<feBlend mode="normal" in="SourceGraphic" in2="BackgroundImageFix" result="shape"/>
<feGaussianBlur stdDeviation="1.55273" result="effect1_foregroundBlur_1431_3"/>
</filter>
<filter id="filter14_f_1431_3" x="268.861" y="60.5107" width="20.5356" height="21.0662" filterUnits="userSpaceOnUse" color-interpolation-filters="sRGB">
<feFlood flood-opacity="0" result="BackgroundImageFix"/>
<feBlend mode="normal" in="SourceGraphic" in2="BackgroundImageFix" result="shape"/>
<feGaussianBlur stdDeviation="1.55273" result="effect1_foregroundBlur_1431_3"/>
</filter>
<filter id="filter15_f_1431_3" x="268.861" y="60.5107" width="20.5356" height="21.0662" filterUnits="userSpaceOnUse" color-interpolation-filters="sRGB">
<feFlood flood-opacity="0" result="BackgroundImageFix"/>
<feBlend mode="normal" in="SourceGraphic" in2="BackgroundImageFix" result="shape"/>
<feGaussianBlur stdDeviation="1.55273" result="effect1_foregroundBlur_1431_3"/>
</filter>
<filter id="filter16_f_1431_3" x="320.135" y="80.1504" width="26.4663" height="27.2165" filterUnits="userSpaceOnUse" color-interpolation-filters="sRGB">
<feFlood flood-opacity="0" result="BackgroundImageFix"/>
<feBlend mode="normal" in="SourceGraphic" in2="BackgroundImageFix" result="shape"/>
<feGaussianBlur stdDeviation="1.55273" result="effect1_foregroundBlur_1431_3"/>
</filter>
<filter id="filter17_f_1431_3" x="316.864" y="76.7585" width="33.0083" height="34.0012" filterUnits="userSpaceOnUse" color-interpolation-filters="sRGB">
<feFlood flood-opacity="0" result="BackgroundImageFix"/>
<feBlend mode="normal" in="SourceGraphic" in2="BackgroundImageFix" result="shape"/>
<feGaussianBlur stdDeviation="1.55273" result="effect1_foregroundBlur_1431_3"/>
</filter>
<filter id="filter18_f_1431_3" x="312.576" y="87.2271" width="20.4126" height="20.9387" filterUnits="userSpaceOnUse" color-interpolation-filters="sRGB">
<feFlood flood-opacity="0" result="BackgroundImageFix"/>
<feBlend mode="normal" in="SourceGraphic" in2="BackgroundImageFix" result="shape"/>
<feGaussianBlur stdDeviation="1.55273" result="effect1_foregroundBlur_1431_3"/>
</filter>
<filter id="filter19_f_1431_3" x="310.283" y="84.8481" width="24.9995" height="25.6955" filterUnits="userSpaceOnUse" color-interpolation-filters="sRGB">
<feFlood flood-opacity="0" result="BackgroundImageFix"/>
<feBlend mode="normal" in="SourceGraphic" in2="BackgroundImageFix" result="shape"/>
<feGaussianBlur stdDeviation="1.55273" result="effect1_foregroundBlur_1431_3"/>
</filter>
<filter id="filter20_f_1431_3" x="272.259" y="82.2815" width="15.2012" height="15.5339" filterUnits="userSpaceOnUse" color-interpolation-filters="sRGB">
<feFlood flood-opacity="0" result="BackgroundImageFix"/>
<feBlend mode="normal" in="SourceGraphic" in2="BackgroundImageFix" result="shape"/>
<feGaussianBlur stdDeviation="1.55273" result="effect1_foregroundBlur_1431_3"/>
</filter>
<filter id="filter21_f_1431_3" x="270.808" y="80.7744" width="18.1045" height="18.5452" filterUnits="userSpaceOnUse" color-interpolation-filters="sRGB">
<feFlood flood-opacity="0" result="BackgroundImageFix"/>
<feBlend mode="normal" in="SourceGraphic" in2="BackgroundImageFix" result="shape"/>
<feGaussianBlur stdDeviation="1.55273" result="effect1_foregroundBlur_1431_3"/>
</filter>
<linearGradient id="paint0_linear_1431_3" x1="398.706" y1="224.609" x2="185.792" y2="269.268" gradientUnits="userSpaceOnUse">
<stop stop-color="#E8F5FF"/>
<stop offset="1" stop-color="#1E126B"/>
</linearGradient>
<linearGradient id="paint1_linear_1431_3" x1="313.309" y1="293.918" x2="309.228" y2="365.046" gradientUnits="userSpaceOnUse">
<stop stop-color="#193DB9" stop-opacity="0"/>
<stop offset="1" stop-color="#57E1FF"/>
</linearGradient>
<linearGradient id="paint2_linear_1431_3" x1="295" y1="155.544" x2="295" y2="499.716" gradientUnits="userSpaceOnUse">
<stop offset="0.5" stop-color="#1D1644" stop-opacity="0.5"/>
<stop offset="0.84375" stop-color="#7719DC"/>
<stop offset="1" stop-color="#A756FF"/>
</linearGradient>
<linearGradient id="paint3_linear_1431_3" x1="294.999" y1="351.584" x2="294.999" y2="191.553" gradientUnits="userSpaceOnUse">
<stop stop-color="white"/>
<stop offset="0.666667" stop-color="#9A98FF" stop-opacity="0"/>
</linearGradient>
<linearGradient id="paint4_linear_1431_3" x1="374.301" y1="156.695" x2="215.699" y2="156.695" gradientUnits="userSpaceOnUse">
<stop stop-color="white"/>
<stop offset="0.265625" stop-color="#52F5FF"/>
<stop offset="0.677083" stop-color="#5171E0"/>
<stop offset="1" stop-color="#FF86EC"/>
</linearGradient>
<linearGradient id="paint5_linear_1431_3" x1="260.327" y1="176.697" x2="186.083" y2="263.144" gradientUnits="userSpaceOnUse">
<stop offset="0.338542" stop-color="#FF7CCB"/>
<stop offset="0.354167" stop-color="#FF7CCB"/>
<stop offset="1" stop-color="#12406B"/>
</linearGradient>
<linearGradient id="paint6_linear_1431_3" x1="265.224" y1="185.933" x2="206.078" y2="277.13" gradientUnits="userSpaceOnUse">
<stop stop-color="white"/>
<stop offset="0.512495" stop-color="white" stop-opacity="0"/>
</linearGradient>
<linearGradient id="paint7_linear_1431_3" x1="215.202" y1="161.639" x2="206.784" y2="238.87" gradientUnits="userSpaceOnUse">
<stop stop-color="#EDFF7C"/>
<stop offset="0.572917" stop-color="#FF7CCB"/>
<stop offset="1" stop-color="#00F0FF"/>
</linearGradient>
<linearGradient id="paint8_linear_1431_3" x1="244.781" y1="171.086" x2="221.823" y2="227.241" gradientUnits="userSpaceOnUse">
<stop stop-color="white"/>
<stop offset="0.512495" stop-color="white" stop-opacity="0"/>
</linearGradient>
<linearGradient id="paint9_linear_1431_3" x1="331.536" y1="168.33" x2="405.656" y2="262.911" gradientUnits="userSpaceOnUse">
<stop offset="0.255208" stop-color="#132C85"/>
<stop offset="0.65625" stop-color="#F187FF"/>
<stop offset="0.975883" stop-color="white"/>
</linearGradient>
<linearGradient id="paint10_linear_1431_3" x1="301.446" y1="162.553" x2="422.082" y2="242.987" gradientUnits="userSpaceOnUse">
<stop offset="0.191757" stop-color="#0F246D" stop-opacity="0.6"/>
<stop offset="0.646372" stop-color="#88C6FF"/>
<stop offset="1" stop-color="white"/>
</linearGradient>
<linearGradient id="paint11_linear_1431_3" x1="302.117" y1="335.482" x2="342.789" y2="215.184" gradientUnits="userSpaceOnUse">
<stop stop-color="#FF5EAB"/>
<stop offset="1" stop-color="#FF5EAB" stop-opacity="0"/>
</linearGradient>
<radialGradient id="paint12_radial_1431_3" cx="0" cy="0" r="1" gradientUnits="userSpaceOnUse" gradientTransform="translate(14.3334 14.5964) rotate(90) scale(14.5964 14.3334)">
<stop stop-color="white"/>
<stop offset="1" stop-color="#DE38FF" stop-opacity="0"/>
</radialGradient>
<linearGradient id="paint13_linear_1431_3" x1="1.12942" y1="4.14843" x2="96.8919" y2="4.14843" gradientUnits="userSpaceOnUse">
<stop stop-color="white"/>
<stop offset="0.828125" stop-color="#9CE7FF" stop-opacity="0"/>
</linearGradient>
<radialGradient id="paint14_radial_1431_3" cx="0" cy="0" r="1" gradientUnits="userSpaceOnUse" gradientTransform="translate(14.3334 14.5964) rotate(90) scale(14.5964 14.3334)">
<stop stop-color="white"/>
<stop offset="1" stop-color="#DE38FF" stop-opacity="0"/>
</radialGradient>
<radialGradient id="paint15_radial_1431_3" cx="0" cy="0" r="1" gradientUnits="userSpaceOnUse" gradientTransform="translate(14.3334 14.5964) rotate(90) scale(14.5964 14.3334)">
<stop stop-color="white"/>
<stop offset="1" stop-color="#DE38FF" stop-opacity="0"/>
</radialGradient>
<linearGradient id="paint16_linear_1431_3" x1="1.12942" y1="4.14843" x2="96.8919" y2="4.14843" gradientUnits="userSpaceOnUse">
<stop stop-color="#9EF9FF"/>
<stop offset="0.828125" stop-color="#9CE7FF" stop-opacity="0"/>
</linearGradient>
<radialGradient id="paint17_radial_1431_3" cx="0" cy="0" r="1" gradientUnits="userSpaceOnUse" gradientTransform="translate(18.9629 19.3108) rotate(90) scale(19.3108 18.9629)">
<stop stop-color="white"/>
<stop offset="1" stop-color="#DE38FF" stop-opacity="0"/>
</radialGradient>
<radialGradient id="paint18_radial_1431_3" cx="0" cy="0" r="1" gradientUnits="userSpaceOnUse" gradientTransform="translate(14.3579 14.5723) rotate(90) scale(14.5723 14.3579)">
<stop stop-color="white"/>
<stop offset="1" stop-color="#DE38FF" stop-opacity="0"/>
</radialGradient>
<linearGradient id="paint19_linear_1431_3" x1="0.702751" y1="5.66599" x2="60.2882" y2="5.66599" gradientUnits="userSpaceOnUse">
<stop stop-color="#9EF9FF"/>
<stop offset="0.828125" stop-color="#9CE7FF" stop-opacity="0"/>
</linearGradient>
<radialGradient id="paint20_radial_1431_3" cx="0" cy="0" r="1" gradientUnits="userSpaceOnUse" gradientTransform="translate(18.9953 19.2789) rotate(90) scale(19.2789 18.9953)">
<stop stop-color="white"/>
<stop offset="1" stop-color="#FF7BCA" stop-opacity="0"/>
</radialGradient>
<radialGradient id="paint21_radial_1431_3" cx="0" cy="0" r="1" gradientUnits="userSpaceOnUse" gradientTransform="translate(10.8375 10.9993) rotate(90) scale(10.9993 10.8375)">
<stop stop-color="white"/>
<stop offset="1" stop-color="#DE38FF" stop-opacity="0"/>
</radialGradient>
<linearGradient id="paint22_linear_1431_3" x1="0.797315" y1="4.27674" x2="68.4007" y2="4.27674" gradientUnits="userSpaceOnUse">
<stop stop-color="#9EF9FF"/>
<stop offset="0.828125" stop-color="#9CE7FF" stop-opacity="0"/>
</linearGradient>
<radialGradient id="paint23_radial_1431_3" cx="0" cy="0" r="1" gradientUnits="userSpaceOnUse" gradientTransform="translate(14.3378 14.5519) rotate(90) scale(14.5519 14.3378)">
<stop stop-color="white"/>
<stop offset="1" stop-color="#FFAFDF" stop-opacity="0"/>
</radialGradient>
<radialGradient id="paint24_radial_1431_3" cx="0" cy="0" r="1" gradientUnits="userSpaceOnUse" gradientTransform="translate(7.24028 7.34981) rotate(90) scale(7.34981 7.24028)">
<stop stop-color="white"/>
<stop offset="1" stop-color="#DE38FF" stop-opacity="0"/>
</radialGradient>
<linearGradient id="paint25_linear_1431_3" x1="0.570507" y1="2.08888" x2="48.9432" y2="2.08888" gradientUnits="userSpaceOnUse">
<stop stop-color="white"/>
<stop offset="0.828125" stop-color="#9CE7FF" stop-opacity="0"/>
</linearGradient>
<linearGradient id="paint26_linear_1431_3" x1="0.569445" y1="2.09264" x2="48.8521" y2="2.09264" gradientUnits="userSpaceOnUse">
<stop stop-color="white"/>
<stop offset="0.828125" stop-color="#9CE7FF" stop-opacity="0"/>
</linearGradient>
<radialGradient id="paint27_radial_1431_3" cx="0" cy="0" r="1" gradientUnits="userSpaceOnUse" gradientTransform="translate(7.2268 7.36307) rotate(90) scale(7.36307 7.2268)">
<stop stop-color="white"/>
<stop offset="1" stop-color="#DE38FF" stop-opacity="0"/>
</radialGradient>
<radialGradient id="paint28_radial_1431_3" cx="0" cy="0" r="1" gradientUnits="userSpaceOnUse" gradientTransform="translate(9.97864 10.1668) rotate(90) scale(10.1668 9.97864)">
<stop stop-color="white"/>
<stop offset="1" stop-color="#DE38FF" stop-opacity="0"/>
</radialGradient>
<linearGradient id="paint29_linear_1431_3" x1="0.569446" y1="2.09264" x2="48.8521" y2="2.09264" gradientUnits="userSpaceOnUse">
<stop stop-color="white"/>
<stop offset="0.828125" stop-color="#9CE7FF" stop-opacity="0"/>
</linearGradient>
<radialGradient id="paint30_radial_1431_3" cx="0" cy="0" r="1" gradientUnits="userSpaceOnUse" gradientTransform="translate(7.2268 7.36307) rotate(90) scale(7.36307 7.2268)">
<stop stop-color="white"/>
<stop offset="1" stop-color="#DE38FF" stop-opacity="0"/>
</radialGradient>
<linearGradient id="paint31_linear_1431_3" x1="0.974591" y1="8.31819" x2="83.609" y2="8.31819" gradientUnits="userSpaceOnUse">
<stop stop-color="#D8FFFD"/>
<stop offset="0.875" stop-color="#9CE7FF" stop-opacity="0"/>
</linearGradient>
<radialGradient id="paint32_radial_1431_3" cx="0" cy="0" r="1" gradientUnits="userSpaceOnUse" gradientTransform="translate(24.193 24.5924) rotate(90) scale(24.5924 24.193)">
<stop stop-color="white"/>
<stop offset="1" stop-color="#DE38FF" stop-opacity="0"/>
</radialGradient>
<linearGradient id="paint33_linear_1431_3" x1="0.578106" y1="6.93817" x2="49.595" y2="6.93817" gradientUnits="userSpaceOnUse">
<stop stop-color="#D8FFFD"/>
<stop offset="1" stop-color="#9CE7FF" stop-opacity="0"/>
</linearGradient>
<radialGradient id="paint34_radial_1431_3" cx="0" cy="0" r="1" gradientUnits="userSpaceOnUse" gradientTransform="translate(20.1428 20.5124) rotate(90) scale(20.5124 20.1428)">
<stop stop-color="white"/>
<stop offset="1" stop-color="#DE38FF" stop-opacity="0"/>
</radialGradient>
<linearGradient id="paint35_linear_1431_3" x1="298.598" y1="139.293" x2="298.598" y2="78.4019" gradientUnits="userSpaceOnUse">
<stop stop-color="white"/>
<stop offset="0.666667" stop-color="#9A98FF" stop-opacity="0"/>
</linearGradient>
<linearGradient id="paint36_linear_1431_3" x1="308.847" y1="63.9834" x2="294.456" y2="116.273" gradientUnits="userSpaceOnUse">
<stop stop-color="#132C85"/>
<stop offset="0.807292" stop-color="#FF87F3"/>
<stop offset="0.975883" stop-color="white"/>
</linearGradient>
<linearGradient id="paint37_linear_1431_3" x1="254.503" y1="-5.22624" x2="242.154" y2="115.457" gradientUnits="userSpaceOnUse">
<stop offset="0.161458" stop-color="#EDFF7C"/>
<stop offset="0.637806" stop-color="#FF7CCB" stop-opacity="0.8"/>
<stop offset="1" stop-color="#00F0FF" stop-opacity="0.7"/>
</linearGradient>
<linearGradient id="paint38_linear_1431_3" x1="301.299" y1="2.35902" x2="274.507" y2="26.6454" gradientUnits="userSpaceOnUse">
<stop stop-color="white"/>
<stop offset="0.338173" stop-color="white" stop-opacity="0"/>
</linearGradient>
<linearGradient id="paint39_linear_1431_3" x1="301.299" y1="6.16734e-08" x2="295.31" y2="120.505" gradientUnits="userSpaceOnUse">
<stop offset="0.00313583" stop-color="#00E0FF"/>
<stop offset="0.545394" stop-color="#3E2DA5" stop-opacity="0.8"/>
<stop offset="1" stop-color="#FFF0F0"/>
</linearGradient>
<radialGradient id="paint40_radial_1431_3" cx="0" cy="0" r="1" gradientUnits="userSpaceOnUse" gradientTransform="translate(7.24028 7.34982) rotate(90) scale(7.34982 7.24028)">
<stop stop-color="white"/>
<stop offset="1" stop-color="#DE38FF" stop-opacity="0"/>
</radialGradient>
<radialGradient id="paint41_radial_1431_3" cx="0" cy="0" r="1" gradientUnits="userSpaceOnUse" gradientTransform="translate(7.24028 7.34982) rotate(90) scale(7.34982 7.24028)">
<stop stop-color="white"/>
<stop offset="1" stop-color="#DE38FF" stop-opacity="0"/>
</radialGradient>
<linearGradient id="paint42_linear_1431_3" x1="0.30869" y1="2.08888" x2="26.4821" y2="2.08888" gradientUnits="userSpaceOnUse">
<stop stop-color="white"/>
<stop offset="0.828125" stop-color="white" stop-opacity="0"/>
</linearGradient>
<radialGradient id="paint43_radial_1431_3" cx="0" cy="0" r="1" gradientUnits="userSpaceOnUse" gradientTransform="translate(10.221 10.4086) rotate(90) scale(10.4086 10.221)">
<stop stop-color="white"/>
<stop offset="1" stop-color="#DE38FF" stop-opacity="0"/>
</radialGradient>
<linearGradient id="paint44_linear_1431_3" x1="0.519581" y1="2.9582" x2="44.5743" y2="2.9582" gradientUnits="userSpaceOnUse">
<stop stop-color="#9EF9FF"/>
<stop offset="0.828125" stop-color="#9CE7FF" stop-opacity="0"/>
</linearGradient>
<radialGradient id="paint45_radial_1431_3" cx="0" cy="0" r="1" gradientUnits="userSpaceOnUse" gradientTransform="translate(13.5222 13.7703) rotate(90) scale(13.7703 13.5222)">
<stop stop-color="white"/>
<stop offset="1" stop-color="#DE38FF" stop-opacity="0"/>
</radialGradient>
<radialGradient id="paint46_radial_1431_3" cx="0" cy="0" r="1" gradientUnits="userSpaceOnUse" gradientTransform="translate(7.16636 7.29784) rotate(90) scale(7.29784 7.16636)">
<stop stop-color="white"/>
<stop offset="1" stop-color="#DE38FF" stop-opacity="0"/>
</radialGradient>
<linearGradient id="paint47_linear_1431_3" x1="0.364299" y1="2.07411" x2="31.2528" y2="2.07411" gradientUnits="userSpaceOnUse">
<stop stop-color="#9EF9FF"/>
<stop offset="0.828125" stop-color="#9CE7FF" stop-opacity="0"/>
</linearGradient>
<radialGradient id="paint48_radial_1431_3" cx="0" cy="0" r="1" gradientUnits="userSpaceOnUse" gradientTransform="translate(9.48096 9.65492) rotate(90) scale(9.65492 9.48096)">
<stop stop-color="white"/>
<stop offset="1" stop-color="#DE38FF" stop-opacity="0"/>
</radialGradient>
<radialGradient id="paint49_radial_1431_3" cx="0" cy="0" r="1" gradientUnits="userSpaceOnUse" gradientTransform="translate(4.53639 4.61962) rotate(90) scale(4.61962 4.53639)">
<stop stop-color="white"/>
<stop offset="1" stop-color="#DE38FF" stop-opacity="0"/>
</radialGradient>
<linearGradient id="paint50_linear_1431_3" x1="0.230605" y1="1.31293" x2="19.7834" y2="1.31293" gradientUnits="userSpaceOnUse">
<stop stop-color="#9EF9FF"/>
<stop offset="0.828125" stop-color="#9CE7FF" stop-opacity="0"/>
</linearGradient>
<radialGradient id="paint51_radial_1431_3" cx="0" cy="0" r="1" gradientUnits="userSpaceOnUse" gradientTransform="translate(6.00156 6.11168) rotate(90) scale(6.11168 6.00156)">
<stop stop-color="white"/>
<stop offset="1" stop-color="#DE38FF" stop-opacity="0"/>
</radialGradient>
<linearGradient id="paint52_linear_1431_3" x1="343.415" y1="101.912" x2="311.915" y2="68.3122" gradientUnits="userSpaceOnUse">
<stop stop-color="white"/>
<stop offset="1" stop-color="white" stop-opacity="0"/>
</linearGradient>
</defs>
</svg>
