<svg xmlns="http://www.w3.org/2000/svg" xmlns:xlink="http://www.w3.org/1999/xlink" width="500" zoomAndPan="magnify" viewBox="0 0 375 374.999991" height="500" preserveAspectRatio="xMidYMid meet" version="1.0"><defs><g/><clipPath id="4c0f338531"><path d="M 125 143 L 256 143 L 256 299.597656 L 125 299.597656 Z M 125 143 " clip-rule="nonzero"/></clipPath></defs><path fill="#f1ead0" d="M 144.902344 244.992188 C 147.691406 239.835938 157.425781 239.347656 163.777344 240.589844 C 170.125 241.828125 174.179688 244.171875 174.546875 247.535156 C 174.863281 250.429688 172.730469 252.394531 172.730469 252.394531 C 175.53125 259.527344 176.984375 273.066406 176.984375 273.066406 C 179.25 283.367188 179.402344 291.429688 178.746094 293.066406 C 178.09375 294.707031 164.457031 298.5625 152.632812 298.566406 C 140.8125 298.566406 130.976562 294.675781 129.027344 293.351562 C 127.074219 292.03125 124.96875 286.144531 127.652344 276.753906 C 130.335938 267.363281 139.765625 262.769531 139.765625 262.769531 C 142.160156 257.53125 145.980469 252.113281 145.980469 252.113281 C 144.101562 250.660156 143.582031 247.433594 144.902344 244.992188 Z M 205.019531 239.453125 C 208.484375 240.113281 214.875 242.023438 217.675781 245.273438 C 220.476562 248.523438 219.300781 252.046875 217.035156 253.964844 C 217.035156 253.964844 218.671875 257.496094 222.820312 259.996094 C 222.820312 259.996094 232.660156 255.488281 242.757812 261.414062 C 252.859375 267.339844 255.28125 278.746094 254.121094 285.621094 C 252.957031 292.492188 251.25 292.179688 248.554688 293.5625 C 245.863281 294.945312 232.152344 296.523438 221.664062 296.5 C 211.175781 296.476562 203.449219 292.902344 193.382812 286.027344 C 183.316406 279.152344 184.332031 278.253906 184.542969 275.074219 C 184.757812 271.898438 188.015625 257.164062 192.636719 248.816406 C 192.636719 248.816406 190.582031 245.59375 192.636719 242.359375 C 195.027344 238.589844 199.964844 238.488281 205.019531 239.453125 Z M 205.019531 239.453125 " fill-opacity="1" fill-rule="evenodd"/><g clip-path="url(#4c0f338531)"><path fill="#a16f99" d="M 152.492188 243.289062 C 153.308594 202.957031 152.96875 150.617188 152.96875 150.617188 C 152.945312 146.890625 155.953125 143.839844 159.683594 143.816406 C 163.414062 143.792969 166.460938 146.800781 166.484375 150.53125 C 166.484375 150.53125 167.5 203.089844 166.003906 243.5625 L 166.117188 240.390625 C 169.019531 241.144531 171.324219 242.171875 172.878906 243.445312 C 174.277344 244.589844 175.089844 245.9375 175.253906 247.457031 C 175.523438 249.933594 174.203125 251.804688 173.554688 252.554688 C 176.1875 259.617188 177.597656 272.160156 177.6875 272.953125 C 179.144531 279.589844 179.730469 285.308594 179.789062 288.996094 C 179.789062 289.003906 179.789062 289.011719 179.789062 289.015625 C 179.796875 289.355469 179.796875 289.675781 179.792969 289.980469 C 179.777344 291.644531 179.621094 292.800781 179.40625 293.332031 C 179.335938 293.511719 179.195312 293.714844 178.960938 293.921875 C 178.621094 294.21875 178.023438 294.5625 177.199219 294.921875 C 172.945312 296.765625 162.203125 299.273438 152.632812 299.277344 C 140.609375 299.28125 130.609375 295.289062 128.625 293.941406 C 127.753906 293.351562 126.8125 291.972656 126.238281 289.828125 C 125.445312 286.859375 125.3125 282.355469 126.96875 276.558594 C 129.480469 267.757812 137.730469 263.039062 139.21875 262.25 C 141.195312 258 144.046875 253.683594 145.042969 252.222656 C 143.332031 250.433594 142.914062 247.175781 144.277344 244.652344 C 145.476562 242.433594 147.851562 240.984375 150.730469 240.171875 C 151.320312 240.003906 151.933594 239.863281 152.558594 239.75 Z M 178.367188 290.222656 C 175.519531 291.683594 167.140625 295.292969 153.8125 295.355469 C 140.089844 295.417969 131.445312 292.371094 128.113281 290.921875 C 128.5 291.824219 128.957031 292.449219 129.425781 292.765625 C 131.34375 294.0625 141.015625 297.855469 152.632812 297.851562 C 160.824219 297.851562 169.894531 295.980469 174.824219 294.304688 C 176.046875 293.886719 177.003906 293.488281 177.617188 293.128906 C 177.828125 293.003906 178.058594 292.808594 178.097656 292.777344 C 178.257812 292.34375 178.347656 291.464844 178.367188 290.222656 Z M 200.84375 238.238281 C 199.75 238.203125 198.695312 238.257812 197.707031 238.429688 C 195.339844 238.839844 193.34375 239.914062 192.035156 241.976562 C 190.1875 244.890625 191.316406 247.796875 191.828125 248.816406 C 187.25 257.3125 184.046875 271.855469 183.835938 275.027344 C 183.742188 276.421875 183.542969 277.410156 184 278.582031 C 184.652344 280.242188 186.726562 282.34375 192.980469 286.613281 C 203.1875 293.585938 211.027344 297.1875 221.660156 297.210938 C 229.042969 297.230469 238.011719 296.457031 243.660156 295.515625 C 246.167969 295.09375 248.039062 294.628906 248.882812 294.195312 C 250.308594 293.460938 251.464844 293.152344 252.429688 292.140625 C 253.203125 291.328125 253.875 290.054688 254.429688 287.707031 C 254.4375 287.671875 254.445312 287.640625 254.453125 287.605469 C 254.582031 287.046875 254.703125 286.425781 254.820312 285.738281 C 256.019531 278.660156 253.523438 266.90625 243.117188 260.800781 C 233.839844 255.359375 224.777344 258.449219 222.882812 259.199219 C 220.019531 257.378906 218.476562 255.074219 217.921875 254.117188 C 220.164062 251.910156 221.15625 248.226562 218.214844 244.808594 C 217.167969 243.597656 215.636719 242.558594 213.945312 241.695312 C 218.226562 229.113281 222.460938 216.675781 224.816406 206.511719 C 226.808594 197.921875 227.371094 190.714844 226.191406 185.878906 C 222.960938 172.636719 210.859375 146.933594 210.859375 146.933594 C 209.265625 143.5625 205.234375 142.117188 201.863281 143.714844 C 198.488281 145.308594 197.046875 149.339844 198.640625 152.710938 C 198.640625 152.710938 210.042969 176.703125 213.058594 189.082031 C 213.882812 192.457031 213.042969 197.457031 211.652344 203.457031 C 209.324219 213.492188 205.074219 225.8125 200.84375 238.238281 Z M 200.363281 239.652344 C 199.523438 239.644531 198.714844 239.699219 197.949219 239.832031 C 195.988281 240.171875 194.320312 241.03125 193.238281 242.738281 C 191.453125 245.554688 193.1875 248.355469 193.234375 248.433594 L 193.246094 248.449219 L 193.253906 248.464844 C 193.253906 248.464844 194.507812 250.546875 199.414062 252.304688 C 199.785156 252.4375 199.976562 252.84375 199.84375 253.214844 C 199.710938 253.582031 199.304688 253.777344 198.933594 253.644531 C 195.488281 252.410156 193.660156 250.992188 192.765625 250.089844 C 188.59375 258.195312 185.648438 271.230469 185.28125 274.800781 C 186.722656 276.191406 194.601562 283.570312 203.960938 287.785156 C 205.503906 288.476562 207.003906 289.066406 208.480469 289.558594 C 208.851562 289.679688 209.050781 290.085938 208.929688 290.457031 C 208.804688 290.828125 208.402344 291.03125 208.027344 290.90625 C 206.511719 290.398438 204.96875 289.796875 203.378906 289.082031 C 194.996094 285.308594 187.773438 279.054688 185.121094 276.605469 C 185.097656 277.097656 185.128906 277.558594 185.328125 278.0625 C 185.550781 278.636719 185.992188 279.257812 186.769531 280.039062 C 188.054688 281.328125 190.214844 283 193.785156 285.441406 C 203.710938 292.21875 211.324219 295.765625 221.664062 295.789062 C 228.964844 295.804688 237.839844 295.042969 243.425781 294.109375 C 245.730469 293.726562 247.457031 293.328125 248.230469 292.929688 C 249.496094 292.28125 250.542969 292.054688 251.398438 291.160156 C 251.863281 290.667969 252.265625 289.980469 252.621094 288.925781 C 248.964844 290.703125 243.046875 292.1875 234.976562 292.777344 C 227.4375 293.324219 221.304688 293.601562 215.273438 292.664062 C 214.886719 292.605469 214.617188 292.242188 214.679688 291.851562 C 214.738281 291.464844 215.101562 291.199219 215.492188 291.257812 C 221.425781 292.183594 227.457031 291.894531 234.875 291.355469 C 243.625 290.71875 249.765625 289.035156 253.125 287.042969 C 253.226562 286.574219 253.324219 286.0625 253.417969 285.5 C 254.546875 278.835938 252.191406 267.777344 242.398438 262.03125 C 232.695312 256.335938 223.242188 260.585938 223.117188 260.644531 L 223.09375 260.65625 L 223.082031 260.660156 C 223.082031 260.660156 218.558594 262.488281 214.386719 268.921875 C 214.171875 269.25 213.730469 269.34375 213.402344 269.128906 C 213.070312 268.914062 212.976562 268.476562 213.191406 268.144531 C 216.339844 263.292969 219.695312 260.910156 221.40625 259.921875 C 218.863281 258.117188 217.402344 256.023438 216.769531 254.960938 C 215.679688 255.53125 213.304688 256.421875 209.476562 256.089844 C 209.085938 256.054688 208.792969 255.710938 208.828125 255.320312 C 208.863281 254.929688 209.207031 254.636719 209.597656 254.671875 C 214.261719 255.074219 216.46875 253.5 216.585938 253.410156 C 218.582031 251.714844 219.605469 248.605469 217.136719 245.738281 C 216.230469 244.691406 214.9375 243.789062 213.488281 243.03125 C 213.238281 243.773438 212.984375 244.519531 212.730469 245.261719 C 212.007812 247.394531 208.949219 247.839844 205.414062 246.640625 C 201.882812 245.441406 198.925781 243.886719 199.933594 240.917969 C 200.074219 240.496094 200.21875 240.074219 200.363281 239.652344 Z M 152.53125 241.203125 C 152.050781 241.296875 151.574219 241.410156 151.117188 241.542969 C 148.640625 242.242188 146.558594 243.421875 145.527344 245.328125 C 144.375 247.460938 144.773438 250.285156 146.414062 251.550781 L 146.421875 251.558594 C 146.421875 251.558594 147.78125 252.609375 151.027344 253.195312 C 151.414062 253.265625 151.671875 253.632812 151.601562 254.019531 C 151.53125 254.40625 151.160156 254.664062 150.777344 254.59375 C 148.417969 254.167969 146.941406 253.507812 146.179688 253.082031 C 145.289062 254.390625 143.023438 257.820312 141.191406 261.449219 C 143.558594 260.691406 148.292969 259.691406 155.25 260.589844 C 165.671875 261.9375 171.707031 267.519531 174.292969 270.523438 C 174.546875 270.820312 174.515625 271.273438 174.21875 271.527344 C 173.917969 271.785156 173.46875 271.75 173.214844 271.453125 C 170.75 268.589844 164.996094 263.285156 155.066406 262 C 145.242188 260.730469 140.09375 263.398438 140.09375 263.398438 L 140.074219 263.410156 C 140.074219 263.410156 130.933594 267.851562 128.335938 276.949219 C 126.84375 282.171875 126.859375 286.28125 127.519531 289.078125 C 129.121094 289.890625 138.019531 294.003906 153.804688 293.929688 C 168.160156 293.867188 176.609375 289.59375 178.359375 288.617188 C 178.265625 284.980469 177.675781 279.523438 176.289062 273.21875 C 176.28125 273.195312 176.277344 273.167969 176.273438 273.144531 C 176.273438 273.144531 174.957031 260.769531 172.394531 253.527344 C 171.214844 254.273438 168.730469 255.449219 164.582031 255.59375 C 164.191406 255.605469 163.859375 255.300781 163.847656 254.90625 C 163.832031 254.515625 164.140625 254.183594 164.535156 254.171875 C 169.984375 253.980469 172.238281 251.882812 172.238281 251.882812 L 172.25 251.871094 C 172.25 251.871094 174.117188 250.152344 173.839844 247.609375 C 173.679688 246.125 172.664062 244.894531 171.027344 243.867188 C 169.730469 243.058594 168.054688 242.382812 166.066406 241.847656 L 166.0625 241.894531 C 166.050781 242.292969 166.035156 242.691406 166.023438 243.089844 C 166.019531 243.167969 166.015625 243.246094 166.011719 243.324219 C 166.007812 243.484375 166.003906 243.644531 165.988281 243.800781 C 165.957031 244.078125 165.894531 244.351562 165.78125 244.605469 C 165.722656 244.742188 165.648438 244.871094 165.566406 244.996094 C 165.511719 245.078125 165.449219 245.15625 165.382812 245.230469 C 165.039062 245.617188 164.582031 245.886719 164.105469 246.074219 C 164.03125 246.105469 163.960938 246.128906 163.886719 246.15625 C 163.78125 246.191406 163.675781 246.222656 163.570312 246.253906 C 163.4375 246.292969 163.304688 246.324219 163.171875 246.355469 C 163 246.390625 162.824219 246.425781 162.648438 246.453125 C 162.414062 246.492188 162.179688 246.519531 161.941406 246.542969 C 161.636719 246.570312 161.328125 246.589844 161.023438 246.601562 C 160.621094 246.617188 160.214844 246.621094 159.8125 246.613281 C 159.3125 246.605469 158.808594 246.585938 158.304688 246.546875 C 157.917969 246.519531 157.53125 246.480469 157.148438 246.429688 C 156.835938 246.390625 156.523438 246.339844 156.214844 246.277344 C 155.972656 246.226562 155.730469 246.171875 155.488281 246.105469 C 155.308594 246.058594 155.125 246.003906 154.949219 245.941406 C 154.8125 245.894531 154.675781 245.84375 154.539062 245.789062 C 154.445312 245.75 154.351562 245.707031 154.261719 245.664062 C 154.183594 245.628906 154.109375 245.589844 154.039062 245.550781 C 153.589844 245.3125 153.171875 244.996094 152.882812 244.574219 C 152.769531 244.410156 152.679688 244.230469 152.617188 244.042969 C 152.550781 243.859375 152.515625 243.667969 152.5 243.476562 C 152.484375 243.257812 152.496094 243.035156 152.5 242.816406 C 152.511719 242.339844 152.519531 241.867188 152.527344 241.390625 Z M 152.53125 241.203125 " fill-opacity="1" fill-rule="evenodd"/></g><g fill="#f1ead0" fill-opacity="1"><g transform="translate(56.074563, 205.618462)"><g><path d="M 75.796875 -64.296875 C 80.703125 -63.515625 84.226562 -62.929688 86.375 -62.546875 C 90.3125 -61.691406 92.738281 -60.265625 93.65625 -58.265625 C 94.582031 -56.273438 94.644531 -52.925781 93.84375 -48.21875 C 93.050781 -43.519531 91.398438 -40.59375 88.890625 -39.4375 C 87.335938 -38.726562 84.472656 -38.742188 80.296875 -39.484375 C 79.765625 -39.535156 78.265625 -39.78125 75.796875 -40.21875 C 73.335938 -40.65625 71.425781 -40.960938 70.0625 -41.140625 C 65.195312 -31.785156 58.046875 -24.941406 48.609375 -20.609375 C 36.015625 -14.804688 23.320312 -14.382812 10.53125 -19.34375 C -2.25 -24.300781 -11.484375 -32.957031 -17.171875 -45.3125 C -20.273438 -52.070312 -21.960938 -58.960938 -22.234375 -65.984375 C -22.503906 -73.003906 -21.523438 -79.441406 -19.296875 -85.296875 C -17.066406 -91.148438 -13.832031 -96.429688 -9.59375 -101.140625 C -5.363281 -105.847656 -0.441406 -109.492188 5.171875 -112.078125 C 17.210938 -117.617188 29.664062 -118.078125 42.53125 -113.453125 C 55.394531 -108.828125 64.898438 -99.847656 71.046875 -86.515625 C 74.148438 -79.765625 75.734375 -72.359375 75.796875 -64.296875 Z M 4.140625 -55.859375 C 7.472656 -48.628906 12.515625 -43.832031 19.265625 -41.46875 C 26.023438 -39.101562 32.289062 -39.25 38.0625 -41.90625 C 43.84375 -44.570312 48.039062 -49.164062 50.65625 -55.6875 C 53.269531 -62.207031 52.875 -69.171875 49.46875 -76.578125 C 46.0625 -83.984375 40.988281 -88.84375 34.25 -91.15625 C 27.507812 -93.476562 21.25 -93.3125 15.46875 -90.65625 C 9.695312 -88 5.53125 -83.34375 2.96875 -76.6875 C 0.414062 -70.039062 0.804688 -63.097656 4.140625 -55.859375 Z M 4.140625 -55.859375 "/></g></g></g><g fill="#f1ead0" fill-opacity="1"><g transform="translate(144.540048, 166.037545)"><g><path d="M 45.71875 -37.109375 L 64.078125 -22.96875 C 66.378906 -21.164062 67.835938 -19.78125 68.453125 -18.8125 C 69.078125 -17.851562 69.40625 -16.925781 69.4375 -16.03125 C 69.519531 -13.894531 68.238281 -10.9375 65.59375 -7.15625 C 62.675781 -3.289062 60.0625 -1.316406 57.75 -1.234375 C 55.78125 -1.160156 53.003906 -2.363281 49.421875 -4.84375 L 48.046875 -5.734375 C 45.921875 -7.359375 42.632812 -10.21875 38.1875 -14.3125 C 33.75 -18.414062 30.378906 -21.328125 28.078125 -23.046875 L 28.4375 -12.71875 C 28.519531 -10.65625 28.507812 -9.101562 28.40625 -8.0625 C 28.3125 -7.03125 27.925781 -5.828125 27.25 -4.453125 C 26.175781 -2.085938 22.773438 -0.804688 17.046875 -0.609375 C 11.410156 -0.398438 7.925781 -1.484375 6.59375 -3.859375 C 5.914062 -5.179688 5.488281 -6.351562 5.3125 -7.375 C 5.144531 -8.40625 5.023438 -9.945312 4.953125 -12 L 2.109375 -92.390625 C 2.035156 -94.441406 2.046875 -95.984375 2.140625 -97.015625 C 2.242188 -98.054688 2.582031 -99.257812 3.15625 -100.625 C 4.320312 -103.082031 7.765625 -104.414062 13.484375 -104.625 C 17.785156 -104.78125 20.859375 -104.128906 22.703125 -102.671875 C 24.265625 -101.472656 25.132812 -99.53125 25.3125 -96.84375 C 25.4375 -96.039062 25.53125 -94.789062 25.59375 -93.09375 L 27.109375 -50.5625 C 28.671875 -51.945312 31.023438 -54.304688 34.171875 -57.640625 C 37.316406 -60.972656 39.675781 -63.34375 41.25 -64.75 L 42.8125 -65.875 C 45.863281 -68.40625 48.503906 -69.707031 50.734375 -69.78125 C 52.972656 -69.863281 55.609375 -68.144531 58.640625 -64.625 C 61.679688 -61.113281 63.238281 -58.328125 63.3125 -56.265625 C 63.382812 -54.210938 61.816406 -51.738281 58.609375 -48.84375 Z M 45.71875 -37.109375 "/></g></g></g><g fill="#f1ead0" fill-opacity="1"><g transform="translate(208.01374, 164.496595)"><g><path d="M 25.390625 -88.875 C 25.835938 -90.875 26.238281 -92.359375 26.59375 -93.328125 C 26.945312 -94.304688 27.578125 -95.382812 28.484375 -96.5625 C 30.234375 -98.644531 33.898438 -99.0625 39.484375 -97.8125 C 44.816406 -96.625 47.875 -94.703125 48.65625 -92.046875 C 49.0625 -90.578125 49.210938 -89.304688 49.109375 -88.234375 C 49.003906 -87.160156 48.726562 -85.617188 48.28125 -83.609375 L 34.703125 -22.9375 C 34.003906 -19.78125 33.820312 -17.726562 34.15625 -16.78125 C 34.5 -15.832031 35.5625 -15.15625 37.34375 -14.75 C 39.132812 -14.351562 40.320312 -14.019531 40.90625 -13.75 C 41.5 -13.488281 42.160156 -12.953125 42.890625 -12.140625 C 44.390625 -10.617188 44.570312 -7.328125 43.4375 -2.265625 C 42.207031 3.242188 40.582031 6.414062 38.5625 7.25 C 35.9375 8.3125 30.457031 7.363281 22.125 4.40625 C 15.59375 2.03125 11.722656 -1.179688 10.515625 -5.234375 C 9.035156 -10.046875 9.34375 -17.128906 11.4375 -26.484375 Z M 25.390625 -88.875 "/></g></g></g><g fill="#f1ead0" fill-opacity="1"><g transform="translate(243.182914, 168.492838)"><g><path d="M 95.84375 -27.796875 C 99.394531 -23.253906 100.390625 -19.523438 98.828125 -16.609375 C 98.054688 -15.191406 97.015625 -14.019531 95.703125 -13.09375 C 94.390625 -12.175781 93.710938 -11.675781 93.671875 -11.59375 L 25.359375 41 C 23.910156 42.144531 22.757812 42.992188 21.90625 43.546875 C 21.050781 44.097656 19.957031 44.472656 18.625 44.671875 C 17.289062 44.867188 15.914062 44.582031 14.5 43.8125 C 13.082031 43.050781 11.316406 41.335938 9.203125 38.671875 C 5.660156 34.117188 4.648438 30.425781 6.171875 27.59375 C 7.191406 25.695312 15.84375 18.707031 32.125 6.625 L 29.953125 -45.640625 C 29.785156 -49.097656 30.039062 -51.453125 30.71875 -52.703125 C 32.070312 -55.234375 35.554688 -56.613281 41.171875 -56.84375 C 44.703125 -56.96875 47.21875 -56.625 48.71875 -55.8125 C 50.21875 -55.007812 51.269531 -54.035156 51.875 -52.890625 C 52.476562 -51.753906 52.816406 -50.734375 52.890625 -49.828125 C 52.960938 -48.921875 53.15625 -44.085938 53.46875 -35.328125 C 53.78125 -26.566406 54.15625 -18.351562 54.59375 -10.6875 C 55.65625 -11.738281 60.398438 -15.457031 68.828125 -21.84375 C 77.265625 -28.226562 81.769531 -31.625 82.34375 -32.03125 C 82.914062 -32.4375 83.734375 -32.863281 84.796875 -33.3125 C 86.535156 -34.09375 88.328125 -33.984375 90.171875 -32.984375 C 92.023438 -31.992188 93.914062 -30.265625 95.84375 -27.796875 Z M 95.84375 -27.796875 "/></g></g></g><path stroke-linecap="butt" transform="matrix(0.95459, -0.439436, 0.439436, 0.95459, 1.121381, 84.47842)" fill="none" stroke-linejoin="miter" d="M 91.106244 96.571143 C 95.038395 99.21196 97.856078 101.126955 99.560847 102.312752 C 102.619062 104.620827 104.148821 106.826825 104.148299 108.925818 C 104.148796 111.004818 102.868916 113.91845 100.310212 117.663337 C 97.751508 121.408224 95.154089 123.281581 92.511201 123.280299 C 90.911191 123.280322 88.44396 122.124097 85.116262 119.814731 C 84.679082 119.564374 83.48406 118.764642 81.52782 117.413978 C 79.574153 116.039947 78.042443 115.011566 76.942553 114.325191 C 69.015545 120.460212 60.114803 123.528059 50.232019 123.529 C 37.026158 123.53063 25.878053 118.848838 16.78615 109.487002 C 7.718634 100.107747 3.183792 88.93578 3.18189 75.97941 C 3.181646 68.904108 4.462025 62.291473 7.021203 56.136575 C 9.579577 49.956754 12.990221 44.778986 17.252866 40.594963 C 21.517335 36.415871 26.417974 33.139352 31.949854 30.767229 C 37.482752 28.375115 43.193889 27.178094 49.078335 27.17799 C 61.685526 27.179029 72.625036 31.736152 81.903351 40.84416 C 91.200104 49.956563 95.850064 61.500704 95.848303 75.478406 C 95.8501 82.550331 94.270539 89.581762 91.106244 96.571143 Z M 25.804687 75.353184 C 25.803366 82.947459 28.248797 89.102343 33.137871 93.824591 C 38.04356 98.546302 43.525078 100.905982 49.580871 100.907006 C 55.631733 100.909852 61.081127 98.610244 65.927498 94.011557 C 70.797237 89.415443 73.227623 83.238086 73.23034 75.480771 C 73.229681 67.721902 70.7738 61.500826 65.866074 56.819097 C 60.976785 52.141763 55.507486 49.799985 49.45507 49.800515 C 43.399277 49.799491 37.941896 52.160896 33.071244 56.883443 C 28.225514 61.605187 25.804454 67.762286 25.804687 75.353184 Z M 25.804687 75.353184 " stroke="#a16f99" stroke-width="3.914028" stroke-opacity="1" stroke-miterlimit="4"/><path stroke-linecap="butt" transform="matrix(1.050218, -0.0372598, 0.0372598, 1.050218, 138.652363, 33.230894)" fill="none" stroke-linejoin="miter" d="M 44.741465 88.272807 L 61.717376 102.31351 C 63.859621 104.100467 65.198583 105.464662 65.741954 106.398929 C 66.303899 107.333854 66.584574 108.229045 66.58398 109.084501 C 66.581679 111.141283 65.263196 113.91758 62.621102 117.413128 C 59.730538 120.992847 57.171358 122.780382 54.943431 122.779448 C 53.072519 122.780022 50.471896 121.542161 47.145277 119.065998 L 45.8644 118.161358 C 43.909657 116.54099 40.885707 113.711057 36.784988 109.67501 C 32.711064 105.617597 29.610684 102.740318 27.48796 101.032163 L 27.487765 110.892459 C 27.489022 112.848943 27.414675 114.315494 27.268437 115.292245 C 27.144489 116.269786 26.750991 117.401421 26.083966 118.694447 C 24.960639 120.897431 21.674399 122.000826 16.225378 122.000917 C 10.858215 122.000192 7.581393 120.846206 6.395044 118.535242 C 5.792822 117.267856 5.427316 116.142768 5.305693 115.167672 C 5.180487 114.18873 5.117255 112.721018 5.115866 110.768249 L 5.11718 34.199376 C 5.115923 32.242892 5.178994 30.779661 5.302943 29.802119 C 5.430606 28.82471 5.794517 27.688306 6.394412 26.400337 C 7.58034 24.110306 10.901462 22.967235 16.350483 22.967144 C 20.445606 22.967372 23.3474 23.684035 25.055732 25.120845 C 26.489515 26.328467 27.259973 28.200657 27.363391 30.737282 C 27.447685 31.506482 27.487104 32.701829 27.489079 34.323586 L 27.486829 74.854523 C 29.005463 73.565675 31.314336 71.389874 34.413184 68.33455 C 37.535243 65.254013 39.866272 63.082718 41.402822 61.813102 L 42.934519 60.785079 C 45.928866 58.473661 48.487929 57.318431 50.607996 57.319257 C 52.731776 57.320216 55.173709 59.047136 57.941222 62.50028 C 60.72731 65.954083 62.122576 68.666722 62.123174 70.64178 C 62.120717 72.598131 60.540231 74.89648 57.378002 77.536695 Z M 44.741465 88.272807 " stroke="#a16f99" stroke-width="3.914028" stroke-opacity="1" stroke-miterlimit="4"/><path stroke-linecap="butt" transform="matrix(1.025541, 0.229371, -0.229371, 1.025541, 234.655067, 34.700513)" fill="none" stroke-linejoin="miter" d="M 5.117623 34.201324 C 5.117766 32.243484 5.178657 30.77865 5.303113 29.802383 C 5.430385 28.821676 5.794115 27.68905 6.39712 26.400067 C 7.580547 24.112823 10.900773 22.966474 16.347728 22.967083 C 21.551164 22.968831 24.792676 24.110231 26.085581 26.39973 C 26.751384 27.690605 27.146466 28.843964 27.271637 29.863434 C 27.415758 30.882474 27.48956 32.370508 27.488606 34.32472 L 27.48656 93.512673 C 27.488729 96.570786 27.738931 98.506914 28.236354 99.317431 C 28.756354 100.126706 29.890649 100.531962 31.63924 100.533197 C 33.384203 100.535244 34.551488 100.594123 35.131835 100.719524 C 35.73557 100.847312 36.464208 101.209983 37.314934 101.811975 C 39.020685 102.915965 39.876746 105.943074 39.875052 110.891297 C 39.875543 116.258018 39.023673 119.533807 37.315815 120.719476 C 35.112129 122.259815 29.830027 122.519435 21.465883 121.499147 C 14.914666 120.648535 10.660967 118.472753 8.70641 114.979056 C 6.312657 110.798942 5.115795 104.153361 5.115823 95.042312 Z M 5.117623 34.201324 " stroke="#a16f99" stroke-width="3.914028" stroke-opacity="1" stroke-miterlimit="4"/><path stroke-linecap="butt" transform="matrix(0.924977, 0.498763, -0.498763, 0.924977, 302.689993, 50.965631)" fill="none" stroke-linejoin="miter" d="M 67.739414 55.417819 C 72.770278 57.620759 75.289656 60.303755 75.289241 63.467065 C 75.286868 65.005545 74.944325 66.461397 74.258341 67.836384 C 73.571586 69.186448 73.227856 69.903901 73.230422 69.986979 L 39.750956 144.869638 C 39.064362 146.494116 38.480508 147.729571 38.002923 148.582547 C 37.54699 149.436517 36.807052 150.249365 35.789653 151.017564 C 34.768983 151.787526 33.49029 152.172957 31.948538 152.172348 C 30.410057 152.169976 28.154958 151.527808 25.177947 150.236029 C 20.147083 148.03309 17.628988 145.391632 17.628697 142.313164 C 17.627252 140.274196 21.716602 130.518285 29.891709 113.043925 L 4.462251 70.238439 C 2.757229 67.428836 1.904316 65.338001 1.903513 63.965933 C 1.904185 61.241685 4.213203 58.514323 8.830823 55.792157 C 11.720231 54.086332 13.978987 53.231559 15.600545 53.231366 C 17.222103 53.231172 18.543266 53.574549 19.564033 54.261496 C 20.581529 54.950208 21.320089 55.654188 21.776697 56.383509 C 22.258228 57.11206 24.597594 61.074584 28.799831 68.272589 C 33.021956 75.468316 37.057749 82.177509 40.905445 88.396895 C 41.322052 87.023576 43.619264 81.760287 47.802116 72.608535 C 51.979933 63.455276 54.215943 58.579727 54.506619 57.975343 C 54.799059 57.374231 55.288801 56.645615 55.975845 55.789496 C 57.077444 54.355103 58.625322 53.638708 60.622751 53.638546 C 62.641832 53.639379 65.013465 54.231379 67.739414 55.417819 Z M 67.739414 55.417819 " stroke="#a16f99" stroke-width="3.914028" stroke-opacity="1" stroke-miterlimit="4"/></svg>